<svg width="103" height="102" viewBox="0 0 103 102" fill="none" xmlns="http://www.w3.org/2000/svg">
  <g transform="translate(0.5, 0) scale(1.02)">
    <circle cx="50" cy="50" r="50" fill="white" stroke="black" stroke-width="2"/>
    
    <g stroke="black" stroke-width="1.5">
      <polygon fill="black" points="50,28 65,40 59,58 41,58 35,40"/>
      
      <polygon fill="white" points="50,28 35,40 30,25 50,10 70,25 65,40"/>
      <polygon fill="white" points="65,40 70,25 88,35 83,55 70,60 59,58"/>
      <polygon fill="white" points="59,58 70,60 65,78 50,88 35,78 41,58"/>
      <polygon fill="white" points="41,58 35,78 20,70 17,50 30,45"/>
      <polygon fill="white" points="35,40 30,25 12,35 17,50 30,45"/>
    </g>
  </g>
</svg>